<?xml version="1.0" standalone="no"?>
<!DOCTYPE svg PUBLIC "-//W3C//DTD SVG 20010904//EN"
 "http://www.w3.org/TR/2001/REC-SVG-20010904/DTD/svg10.dtd">
<svg version="1.0" xmlns="http://www.w3.org/2000/svg"
 width="256.000000pt" height="256.000000pt" viewBox="0 0 256.000000 256.000000"
 preserveAspectRatio="xMidYMid meet">
<metadata>
Created by potrace 1.11, written by Peter Selinger 2001-2013
</metadata>
<g transform="translate(0.000000,256.000000) scale(0.100000,-0.100000)"
fill="#000000" stroke="none">
<path d="M819 2543 c-13 -15 -12 -15 9 -4 23 12 28 21 13 21 -5 0 -15 -7 -22
-17z"/>
<path d="M895 2507 c-115 -56 -272 -153 -268 -167 1 -4 -5 -7 -15 -6 -9 0 -17
-5 -17 -13 0 -7 -11 -21 -25 -29 l-25 -16 20 23 c12 14 -28 -6 -100 -49 -194
-117 -275 -171 -270 -180 3 -5 -8 -18 -24 -29 -38 -27 -54 -27 -21 0 14 11 18
17 10 13 -28 -13 -50 -37 -43 -46 3 -6 -1 -14 -8 -19 -20 -13 -31 -11 -24 4 4
6 -12 -8 -35 -33 -24 -25 -36 -36 -29 -25 13 18 13 19 -3 6 -14 -10 -18 -28
-18 -71 0 -58 0 -58 50 -96 65 -50 107 -102 150 -189 40 -80 60 -88 75 -30 14
56 22 67 95 130 151 131 374 259 565 323 167 57 253 75 322 68 69 -7 209 -51
313 -97 60 -27 69 -36 115 -107 28 -42 74 -106 104 -141 30 -35 48 -60 40 -56
-44 25 -102 82 -119 116 -25 49 -34 51 -14 3 43 -102 67 -288 48 -361 -5 -19
-10 -14 -36 35 -16 31 -42 73 -57 92 -15 19 -31 48 -35 64 -4 15 -9 26 -12 23
-3 -3 2 -32 11 -65 8 -33 18 -89 22 -124 l6 -63 -43 45 c-46 49 -43 39 10 -27
18 -24 38 -43 43 -43 9 0 6 67 -8 150 l-6 35 16 -29 c13 -22 17 -54 16 -150
-1 -72 3 -116 8 -107 7 11 9 11 13 0 3 -9 21 -14 55 -14 28 0 46 -3 40 -7 -7
-4 -24 -8 -39 -8 -21 0 -29 -7 -38 -35 -6 -19 -16 -35 -21 -35 -5 0 -9 -16 -9
-35 l0 -35 158 -2 c86 -1 183 -3 215 -3 32 -1 57 3 57 8 0 6 9 2 20 -8 17 -16
20 -16 15 -3 -4 9 -25 24 -47 32 -22 9 -38 22 -35 29 5 16 61 21 88 7 30 -17
39 -3 50 81 6 41 17 96 25 123 8 27 14 51 14 52 0 1 -14 4 -31 8 -17 3 -46 21
-65 40 -35 35 -38 35 -34 2 3 -29 -17 -9 -30 29 -11 34 -29 47 -31 23 0 -7 -8
12 -18 42 -24 73 -55 134 -102 197 -46 62 -54 100 -28 140 20 30 25 48 9 38
-5 -3 -14 14 -20 37 -26 103 -72 235 -107 305 -35 70 -96 153 -111 153 -4 0
-59 -45 -122 -100 -126 -109 -199 -155 -230 -145 -27 9 -92 99 -179 248 -90
153 -85 152 -246 74z m-355 -232 c0 -2 -10 -10 -22 -16 -21 -11 -22 -11 -9 4
13 16 31 23 31 12z m-63 -43 c-9 -10 -54 -38 -99 -62 -46 -24 -84 -47 -86 -52
-2 -4 -9 -8 -16 -8 -7 0 -22 -11 -34 -25 -13 -14 -27 -23 -33 -19 -11 6 118
95 225 154 61 34 64 35 43 12z m1448 -492 c54 -79 96 -174 94 -213 0 -12 -3
-16 -6 -9 -2 6 -13 12 -23 12 -9 0 -23 7 -30 15 -7 8 -28 15 -46 15 -27 0 -34
-4 -34 -20 0 -26 -49 -77 -81 -84 -25 -5 -27 -3 -33 41 -10 76 -6 147 9 168
15 19 16 19 70 -10 29 -16 57 -26 62 -21 4 5 2 11 -6 14 -25 9 -91 74 -91 90
0 24 53 109 58 93 3 -8 28 -49 57 -91z m-222 -300 c3 -11 1 -18 -4 -14 -5 3
-9 12 -9 20 0 20 7 17 13 -6z"/>
<path d="M1206 2453 c67 -127 107 -188 129 -197 24 -9 62 10 132 65 l63 51
-26 31 c-14 18 -44 60 -65 95 l-40 62 -125 0 -126 0 58 -107z"/>
<path d="M2075 2523 c-44 -8 -128 -16 -187 -17 -59 -1 -110 -4 -114 -8 -11
-12 4 -38 23 -38 26 -1 116 -50 163 -90 27 -23 56 -37 83 -41 l42 -6 -50 -3
-50 -3 55 -6 c38 -4 54 -10 52 -19 -1 -8 2 -11 8 -7 6 4 9 14 5 23 -3 9 -3 13
1 10 8 -9 34 5 92 49 51 39 62 39 206 10 38 -8 76 -13 85 -11 77 14 71 7 71
88 l0 75 -32 -10 c-17 -5 -35 -12 -40 -17 -13 -13 -157 5 -183 22 -30 20 -120
20 -230 -1z"/>
<path d="M1700 2493 c18 -24 35 -43 37 -43 7 0 -35 56 -54 71 -9 8 -2 -5 17
-28z"/>
<path d="M719 2473 c-13 -16 -12 -17 4 -4 9 7 17 15 17 17 0 8 -8 3 -21 -13z"/>
<path d="M649 2423 c-13 -16 -12 -17 4 -4 9 7 17 15 17 17 0 8 -8 3 -21 -13z"/>
<path d="M1926 1963 c-6 -14 -5 -15 5 -6 7 7 10 15 7 18 -3 3 -9 -2 -12 -12z"/>
<path d="M764 1919 c-4 -7 -3 -9 4 -5 5 3 13 0 15 -6 4 -9 6 -10 6 -1 1 17
-16 25 -25 12z"/>
<path d="M2480 1915 c-16 -19 -1 -19 24 0 16 12 17 15 4 15 -8 0 -21 -7 -28
-15z"/>
<path d="M992 1873 c12 -16 43 -46 68 -68 29 -25 23 -16 -20 28 -67 70 -88 87
-48 40z"/>
<path d="M1195 1840 c-3 -5 -2 -10 4 -10 5 0 13 5 16 10 3 6 2 10 -4 10 -5 0
-13 -4 -16 -10z"/>
<path d="M688 1753 c7 -3 16 -2 19 1 4 3 -2 6 -13 5 -11 0 -14 -3 -6 -6z"/>
<path d="M1134 1742 c15 -17 22 -19 33 -11 17 15 17 20 -2 13 -8 -4 -23 0 -33
7 -14 11 -13 9 2 -9z"/>
<path d="M922 1694 c10 -10 20 -15 24 -12 3 4 -5 12 -18 18 -22 12 -22 12 -6
-6z"/>
<path d="M1180 1699 c-13 -9 -12 -10 3 -5 18 6 87 -22 87 -36 0 -4 11 -8 24
-8 13 0 43 -7 66 -15 23 -8 50 -15 59 -14 9 0 -13 10 -48 21 -48 15 -61 22
-50 29 10 7 6 8 -12 4 -17 -4 -41 1 -67 14 -48 24 -43 24 -62 10z"/>
<path d="M612 1570 c0 -14 2 -19 5 -12 2 6 2 18 0 25 -3 6 -5 1 -5 -13z"/>
<path d="M654 1515 c-18 -14 -18 -14 6 -15 65 -1 67 -5 67 -93 -1 -113 40
-194 83 -167 8 5 19 5 26 0 33 -28 79 96 66 179 -5 34 -4 34 28 28 28 -6 31
-5 20 7 -13 17 -107 49 -188 65 -70 14 -84 14 -108 -4z m211 -153 c14 -8 12
-10 -14 -15 -22 -5 -32 -14 -37 -33 l-7 -26 -13 32 c-8 17 -23 34 -34 37 -19
5 -19 7 9 24 17 10 34 31 37 46 l7 27 18 -41 c9 -23 25 -45 34 -51z"/>
<path d="M2275 1511 c-3 -7 0 -8 9 -5 11 4 16 -4 19 -33 l4 -38 -1 39 c-1 38
-18 58 -31 37z"/>
<path d="M1397 1495 c-56 -21 -137 -67 -137 -78 0 -5 7 -7 15 -3 12 4 15 -6
15 -59 0 -76 15 -113 47 -122 43 -10 71 11 87 68 18 61 20 107 6 144 -9 24 -7
27 20 37 31 10 32 29 2 27 -9 0 -34 -7 -55 -14z m-27 -95 c0 -11 7 -23 16 -27
13 -5 12 -9 -6 -28 -12 -12 -25 -35 -30 -51 -8 -29 -8 -28 -9 8 -1 25 -7 42
-19 49 -17 11 -17 13 7 39 32 34 41 36 41 10z"/>
<path d="M2372 1450 c-35 -17 -67 -30 -71 -30 -5 0 -11 -19 -14 -42 -3 -24 -9
-62 -13 -85 -5 -30 -3 -43 5 -43 7 0 10 4 7 9 -4 5 3 7 13 4 11 -3 22 -11 25
-19 3 -8 11 -14 18 -14 19 0 68 -65 68 -89 0 -25 -43 -56 -66 -47 -8 3 -13 10
-9 15 3 6 -3 10 -12 10 -10 -1 -28 2 -40 6 -16 5 -23 3 -23 -6 0 -11 -2 -11
-10 1 -8 12 -10 9 -10 -11 0 -35 21 -51 70 -53 52 -3 57 -9 37 -51 -9 -20 -17
-47 -17 -61 0 -14 -4 -22 -10 -19 -5 3 -10 1 -10 -4 0 -33 -103 20 -115 59
-12 36 -33 21 -94 -67 -103 -149 -71 -134 -256 -122 -90 6 -162 15 -166 21 -4
6 -9 6 -12 1 -3 -5 -27 -7 -54 -4 l-48 6 -6 50 c-4 28 -10 95 -14 148 -7 105
-15 115 -63 81 -12 -8 -22 -13 -22 -10 0 3 -21 -5 -47 -16 -131 -58 -382 -111
-428 -90 -30 14 -31 9 -4 -34 22 -36 37 -47 19 -15 -5 11 -10 22 -10 25 0 8
52 -15 72 -32 14 -12 21 -12 32 -2 29 23 116 -12 116 -47 0 -11 -20 -14 -96
-12 l-96 2 -33 46 c-19 25 -61 99 -95 163 -34 65 -64 118 -67 118 -4 0 -26
-11 -49 -25 l-43 -25 -16 31 c-9 17 -19 29 -21 26 -11 -10 86 -191 139 -261
l29 -37 -29 7 c-58 14 -90 33 -152 92 l-65 61 -19 -22 c-10 -12 -29 -35 -42
-51 -12 -15 -25 -24 -28 -19 -8 12 60 109 73 106 5 -2 -7 20 -28 47 -20 27
-38 47 -40 45 -2 -2 8 -20 23 -39 l27 -35 -22 -31 c-19 -27 -40 -44 -25 -21 3
6 -2 14 -12 19 -15 9 -15 17 -6 68 6 33 8 63 6 68 -8 12 -23 -15 -23 -42 0
-13 -3 -21 -8 -18 -4 2 -6 -14 -4 -36 3 -26 1 -38 -6 -34 -6 3 -8 -2 -5 -13 3
-10 0 -22 -6 -25 -6 -4 -11 -15 -11 -25 0 -10 -6 -31 -14 -47 -8 -16 -17 -42
-20 -59 -3 -16 -13 -48 -22 -70 -28 -69 -32 -79 -54 -140 -12 -33 -22 -68 -22
-77 1 -10 -3 -18 -9 -18 -5 0 -9 -13 -9 -30 0 -16 -6 -49 -14 -72 -24 -71 -76
-389 -76 -465 l0 -23 710 0 710 0 0 125 c0 73 4 125 10 125 16 0 23 -68 15
-161 l-7 -89 116 0 c68 0 116 4 116 10 0 5 -13 46 -29 90 -28 76 -29 80 -10
80 23 0 34 -25 50 -115 l11 -65 324 0 324 0 0 254 0 253 -55 37 c-31 20 -59
44 -62 52 -9 24 27 104 51 114 20 8 20 9 -4 10 -34 1 -48 14 -102 96 -45 70
-46 73 -39 125 6 49 46 139 60 137 3 0 39 0 79 1 l72 1 0 194 c0 163 -2 195
-15 200 -10 3 -15 -1 -15 -14 0 -10 -4 -22 -10 -25 -5 -3 -10 -2 -10 4 0 10
-51 41 -67 41 -4 0 -36 -14 -71 -30z m-120 -643 c16 -22 18 -31 8 -40 -9 -9
-17 -5 -36 18 -42 52 -88 150 -80 171 6 15 14 6 47 -51 22 -38 50 -82 61 -98z
m-1178 138 c5 -13 2 -14 -17 -4 -32 17 -33 19 -10 19 12 0 23 -7 27 -15z
m1336 -229 c0 -17 -88 -164 -95 -159 -4 5 -5 3 -2 -3 7 -13 -14 -64 -26 -64
-5 0 -5 -5 -1 -12 4 -7 3 -8 -4 -4 -15 9 -15 33 0 38 6 2 12 13 13 24 5 40 18
85 26 90 5 3 9 13 9 23 0 9 9 27 19 38 11 12 18 23 16 25 -2 2 7 5 20 6 14 1
25 0 25 -2z m-1130 -323 c14 -10 32 -16 42 -15 23 4 29 -10 33 -73 2 -34 -1
-55 -8 -57 -19 -7 -78 -1 -87 8 -12 13 -25 154 -14 154 5 0 21 -8 34 -17z
m143 -55 c13 -10 15 -20 8 -43 -4 -16 -13 -29 -20 -28 -6 2 -11 -2 -11 -7 0
-5 -7 -10 -16 -10 -11 0 -14 5 -10 16 3 9 6 31 6 50 0 36 14 43 43 22z"/>
<path d="M580 1411 c25 -30 51 -66 57 -80 12 -24 12 -24 7 -3 -5 21 -3 23 18
17 20 -5 21 -4 7 7 -9 7 -14 20 -12 28 4 13 3 13 -6 0 -10 -13 -16 -10 -44 20
-57 61 -74 67 -27 11z"/>
<path d="M1664 1165 c0 -49 1 -71 3 -48 2 23 2 64 0 90 -2 26 -3 8 -3 -42z"/>
<path d="M1491 1192 c0 -24 -8 -57 -18 -75 -15 -29 -15 -31 0 -18 19 15 30 65
24 107 -3 22 -4 19 -6 -14z"/>
<path d="M350 1078 c-51 -136 -77 -193 -107 -234 -13 -17 -23 -35 -23 -41 0
-5 -9 -18 -21 -29 -11 -10 -18 -25 -16 -34 2 -9 -2 -21 -10 -29 -11 -10 -11
-16 -2 -27 6 -8 8 -15 3 -15 -5 -1 -13 -2 -19 -4 -5 -1 -17 -3 -25 -4 -13 -1
-13 -2 0 -11 10 -6 11 -10 3 -10 -7 0 -13 -9 -13 -20 0 -11 -6 -20 -13 -20
-17 0 -60 -58 -52 -70 3 -6 2 -10 -3 -10 -5 0 -19 -19 -31 -43 -17 -34 -21
-56 -19 -105 l3 -63 93 181 c52 99 95 180 98 180 2 0 -6 -23 -17 -52 -28 -70
-79 -231 -75 -235 2 -2 15 31 30 74 42 120 138 353 146 353 10 0 43 88 36 98
-3 5 17 69 44 142 56 148 53 140 42 140 -5 0 -28 -51 -52 -112z"/>
<path d="M42 160 c0 -14 2 -19 5 -12 2 6 2 18 0 25 -3 6 -5 1 -5 -13z"/>
<path d="M25 83 c-4 -27 -9 -57 -12 -68 -3 -13 -2 -17 5 -10 9 10 26 125 18
125 -3 0 -8 -21 -11 -47z"/>
</g>
</svg>
